# xmcd CD database file
#
# Track frame offsets:
#	150
#	17452
#	34885
#	54165
#	69300
#	86737
#	105957
#	118082
#	133450
#	147517
#	165707
#	179555
#	192660
#
# Disc length: 2780 seconds
#
# Revision: 0
# Processed by: cddbd v1.5.2PL0 Copyright (c) Steve Scherf et al.
# Submitted via: CDex 1.51
#
DISCID=ba0ada0d
DTITLE=Dale Keys - Self Titled
DYEAR=2003
DGENRE=Country
TTITLE0=I'm Over You (Until I See You)
TTITLE1=Upside Down in Lincoln
TTITLE2=Some Hearts
TTITLE3=Too Late to Change Your Mind
TTITLE4=I Knew I'd Be Singing This Song
TTITLE5=Leavin' Train
TTITLE6=He's My Dog
TTITLE7=I'm Just Waitn'
TTITLE8=Tucson Too Soon
TTITLE9=Empty Spaces
TTITLE10=Dreams in Black and White
TTITLE11=Old Kentucky Home
TTITLE12=No More Rainy Days
EXTD=YEAR: 2003
EXTT0=
EXTT1=
EXTT2=
EXTT3=
EXTT4=
EXTT5=
EXTT6=
EXTT7=
EXTT8=
EXTT9=
EXTT10=
EXTT11=
EXTT12=
PLAYORDER=
